<svg width="836" height="292" viewBox="0 0 836 292" fill="none" xmlns="http://www.w3.org/2000/svg">
<path d="M270 147C270 216.588 212.245 273 141 273C69.7553 273 12 216.588 12 147C12 77.4121 69.7553 21 141 21C212.245 21 270 77.4121 270 147ZM39.5608 147C39.5608 201.72 84.9767 246.08 141 246.08C197.023 246.08 242.439 201.72 242.439 147C242.439 92.2796 197.023 47.9199 141 47.9199C84.9767 47.9199 39.5608 92.2796 39.5608 147Z" fill="url(#paint0_linear_93_20)"/>
<path d="M99.5715 177.19C93.4515 177.19 88.5781 175.518 84.9515 172.175C81.3815 168.832 79.5965 164.157 79.5965 158.15V152.54H90.8165V158.15C90.8165 160.813 91.5531 162.91 93.0265 164.44C94.4998 165.913 96.5681 166.65 99.2315 166.65C101.725 166.65 103.651 165.913 105.011 164.44C106.428 162.967 107.136 160.87 107.136 158.15V126.7H96.9365V116.5H125.156V126.7H118.356V158.15C118.356 164.327 116.685 169.058 113.341 172.345C109.998 175.575 105.408 177.19 99.5715 177.19ZM139.126 176L131.306 116.5H142.441L148.221 168.18H149.751L157.231 116.5H176.611L184.091 168.18H185.621L191.401 116.5H202.536L194.716 176H175.336L167.686 123.13H166.156L158.506 176H139.126Z" fill="url(#paint1_linear_93_20)"/>
<path d="M288.254 176V116.5H326.504V126.7H299.474V140.895H324.124V151.095H299.474V165.8H327.014V176H288.254ZM357.929 177.19C350.562 177.19 344.726 175.15 340.419 171.07C336.112 166.933 333.959 161.04 333.959 153.39V139.11C333.959 131.46 336.112 125.595 340.419 121.515C344.726 117.378 350.562 115.31 357.929 115.31C365.239 115.31 370.877 117.322 374.844 121.345C378.867 125.312 380.879 130.78 380.879 137.75V138.26H369.829V137.41C369.829 133.897 368.837 131.007 366.854 128.74C364.927 126.473 361.952 125.34 357.929 125.34C353.962 125.34 350.846 126.558 348.579 128.995C346.312 131.432 345.179 134.747 345.179 138.94V153.56C345.179 157.697 346.312 161.012 348.579 163.505C350.846 165.942 353.962 167.16 357.929 167.16C361.952 167.16 364.927 166.027 366.854 163.76C368.837 161.437 369.829 158.547 369.829 155.09V153.56H380.879V154.75C380.879 161.72 378.867 167.217 374.844 171.24C370.877 175.207 365.239 177.19 357.929 177.19ZM413.141 177.19C405.661 177.19 399.711 175.15 395.291 171.07C390.871 166.933 388.661 161.04 388.661 153.39V139.11C388.661 131.46 390.871 125.595 395.291 121.515C399.711 117.378 405.661 115.31 413.141 115.31C420.621 115.31 426.571 117.378 430.991 121.515C435.411 125.595 437.621 131.46 437.621 139.11V153.39C437.621 161.04 435.411 166.933 430.991 171.07C426.571 175.15 420.621 177.19 413.141 177.19ZM413.141 167.16C417.334 167.16 420.593 165.942 422.916 163.505C425.239 161.068 426.401 157.81 426.401 153.73V138.77C426.401 134.69 425.239 131.432 422.916 128.995C420.593 126.558 417.334 125.34 413.141 125.34C409.004 125.34 405.746 126.558 403.366 128.995C401.043 131.432 399.881 134.69 399.881 138.77V153.73C399.881 157.81 401.043 161.068 403.366 163.505C405.746 165.942 409.004 167.16 413.141 167.16ZM447.463 176V116.5H471.943C475.683 116.5 478.969 117.265 481.803 118.795C484.693 120.268 486.931 122.365 488.518 125.085C490.161 127.805 490.983 131.035 490.983 134.775V135.965C490.983 139.648 490.133 142.878 488.433 145.655C486.789 148.375 484.523 150.5 481.633 152.03C478.799 153.503 475.569 154.24 471.943 154.24H458.683V176H447.463ZM458.683 144.04H470.838C473.501 144.04 475.654 143.303 477.298 141.83C478.941 140.357 479.763 138.345 479.763 135.795V134.945C479.763 132.395 478.941 130.383 477.298 128.91C475.654 127.437 473.501 126.7 470.838 126.7H458.683V144.04ZM498.761 176V116.5H524.601C528.341 116.5 531.6 117.152 534.376 118.455C537.153 119.758 539.306 121.6 540.836 123.98C542.366 126.36 543.131 129.165 543.131 132.395V133.415C543.131 136.985 542.281 139.875 540.581 142.085C538.881 144.295 536.785 145.91 534.291 146.93V148.46C536.558 148.573 538.315 149.367 539.561 150.84C540.808 152.257 541.431 154.155 541.431 156.535V176H530.211V158.15C530.211 156.79 529.843 155.685 529.106 154.835C528.426 153.985 527.265 153.56 525.621 153.56H509.981V176H498.761ZM509.981 143.36H523.411C526.075 143.36 528.143 142.652 529.616 141.235C531.146 139.762 531.911 137.835 531.911 135.455V134.605C531.911 132.225 531.175 130.327 529.701 128.91C528.228 127.437 526.131 126.7 523.411 126.7H509.981V143.36ZM552.467 176V116.5H590.717V126.7H563.687V140.895H588.337V151.095H563.687V165.8H591.227V176H552.467ZM599.533 176V116.5H620.358L630.643 168.35H632.173L642.458 116.5H663.283V176H652.403V124.745H650.873L640.673 176H622.143L611.943 124.745H610.413V176H599.533ZM674.489 176V116.5H685.709V176H674.489ZM719.851 177.19C714.978 177.19 710.784 176.312 707.271 174.555C703.814 172.742 701.151 170.192 699.281 166.905C697.468 163.562 696.561 159.623 696.561 155.09V116.5H707.781V155.43C707.781 159.057 708.801 161.918 710.841 164.015C712.938 166.112 715.941 167.16 719.851 167.16C723.761 167.16 726.736 166.112 728.776 164.015C730.873 161.918 731.921 159.057 731.921 155.43V116.5H743.141V155.09C743.141 159.623 742.206 163.562 740.336 166.905C738.523 170.192 735.859 172.742 732.346 174.555C728.889 176.312 724.724 177.19 719.851 177.19ZM754.01 176V116.5H774.835L785.12 168.35H786.65L796.935 116.5H817.76V176H806.88V124.745H805.35L795.15 176H776.62L766.42 124.745H764.89V176H754.01Z" fill="url(#paint2_linear_93_20)"/>
<defs>
<linearGradient id="paint0_linear_93_20" x1="50" y1="46" x2="226" y2="230" gradientUnits="userSpaceOnUse">
<stop stop-color="#38D271"/>
<stop offset="0.480997" stop-color="#36D064"/>
<stop offset="0.949273" stop-color="#10DA2F"/>
</linearGradient>
<linearGradient id="paint1_linear_93_20" x1="141" y1="99" x2="194" y2="176" gradientUnits="userSpaceOnUse">
<stop offset="0.185855" stop-color="#38D271"/>
<stop offset="1" stop-color="#10DA2F"/>
</linearGradient>
<linearGradient id="paint2_linear_93_20" x1="270" y1="146.5" x2="836" y2="146.5" gradientUnits="userSpaceOnUse">
<stop stop-color="#38D271"/>
<stop offset="0.5" stop-color="#36D064"/>
<stop offset="1" stop-color="#10DA2F"/>
</linearGradient>
</defs>
</svg>
