<svg width="728" height="292" viewBox="0 0 728 292" fill="none" xmlns="http://www.w3.org/2000/svg">
<path d="M270 147C270 216.588 212.245 273 141 273C69.7553 273 12 216.588 12 147C12 77.4121 69.7553 21 141 21C212.245 21 270 77.4121 270 147ZM39.5608 147C39.5608 201.72 84.9767 246.08 141 246.08C197.023 246.08 242.439 201.72 242.439 147C242.439 92.2796 197.023 47.9199 141 47.9199C84.9767 47.9199 39.5608 92.2796 39.5608 147Z" fill="url(#paint0_linear_93_14)"/>
<path d="M99.5715 177.19C93.4515 177.19 88.5781 175.518 84.9515 172.175C81.3815 168.832 79.5965 164.157 79.5965 158.15V152.54H90.8165V158.15C90.8165 160.813 91.5531 162.91 93.0265 164.44C94.4998 165.913 96.5681 166.65 99.2315 166.65C101.725 166.65 103.651 165.913 105.011 164.44C106.428 162.967 107.136 160.87 107.136 158.15V126.7H96.9365V116.5H125.156V126.7H118.356V158.15C118.356 164.327 116.685 169.058 113.341 172.345C109.998 175.575 105.408 177.19 99.5715 177.19ZM139.126 176L131.306 116.5H142.441L148.221 168.18H149.751L157.231 116.5H176.611L184.091 168.18H185.621L191.401 116.5H202.536L194.716 176H175.336L167.686 123.13H166.156L158.506 176H139.126Z" fill="url(#paint1_linear_93_14)"/>
<path d="M288.292 176V116.5H326.542V126.7H299.512V140.895H324.162V151.095H299.512V165.8H327.052V176H288.292ZM331.617 176L349.042 145.995L331.787 116.5H344.537L356.352 138.005H357.882L369.697 116.5H382.447L365.192 145.995L382.617 176H369.867L357.882 153.985H356.352L344.367 176H331.617ZM390.059 176V116.5H428.309V126.7H401.279V140.895H425.929V151.095H401.279V165.8H428.819V176H390.059ZM459.735 177.19C452.368 177.19 446.531 175.15 442.225 171.07C437.918 166.933 435.765 161.04 435.765 153.39V139.11C435.765 131.46 437.918 125.595 442.225 121.515C446.531 117.378 452.368 115.31 459.735 115.31C467.045 115.31 472.683 117.322 476.65 121.345C480.673 125.312 482.685 130.78 482.685 137.75V138.26H471.635V137.41C471.635 133.897 470.643 131.007 468.66 128.74C466.733 126.473 463.758 125.34 459.735 125.34C455.768 125.34 452.651 126.558 450.385 128.995C448.118 131.432 446.985 134.747 446.985 138.94V153.56C446.985 157.697 448.118 161.012 450.385 163.505C452.651 165.942 455.768 167.16 459.735 167.16C463.758 167.16 466.733 166.027 468.66 163.76C470.643 161.437 471.635 158.547 471.635 155.09V153.56H482.685V154.75C482.685 161.72 480.673 167.217 476.65 171.24C472.683 175.207 467.045 177.19 459.735 177.19ZM514.777 177.19C509.903 177.19 505.71 176.312 502.197 174.555C498.74 172.742 496.077 170.192 494.207 166.905C492.393 163.562 491.487 159.623 491.487 155.09V116.5H502.707V155.43C502.707 159.057 503.727 161.918 505.767 164.015C507.863 166.112 510.867 167.16 514.777 167.16C518.687 167.16 521.662 166.112 523.702 164.015C525.798 161.918 526.847 159.057 526.847 155.43V116.5H538.067V155.09C538.067 159.623 537.132 163.562 535.262 166.905C533.448 170.192 530.785 172.742 527.272 174.555C523.815 176.312 519.65 177.19 514.777 177.19ZM562.706 176V126.7H545.366V116.5H591.266V126.7H573.926V176H562.706ZM598.907 176V116.5H610.127V176H598.907ZM632.369 176L617.239 116.5H628.799L641.379 168.775H642.569L655.149 116.5H666.709L651.579 176H632.369ZM673.863 176V116.5H712.113V126.7H685.083V140.895H709.733V151.095H685.083V165.8H712.623V176H673.863Z" fill="url(#paint2_linear_93_14)"/>
<defs>
<linearGradient id="paint0_linear_93_14" x1="50" y1="46" x2="226" y2="230" gradientUnits="userSpaceOnUse">
<stop stop-color="#D2B838"/>
<stop offset="0.480997" stop-color="#D0B736"/>
<stop offset="0.949273" stop-color="#DAB910"/>
</linearGradient>
<linearGradient id="paint1_linear_93_14" x1="141" y1="99" x2="194" y2="176" gradientUnits="userSpaceOnUse">
<stop offset="0.185855" stop-color="#DDC11F"/>
<stop offset="1" stop-color="#D5B205"/>
</linearGradient>
<linearGradient id="paint2_linear_93_14" x1="270" y1="146.5" x2="728" y2="146.5" gradientUnits="userSpaceOnUse">
<stop stop-color="#EAC90F"/>
<stop offset="0.5" stop-color="#E2C416"/>
<stop offset="1" stop-color="#B89F11"/>
</linearGradient>
</defs>
</svg>
