<svg width="784" height="292" viewBox="0 0 784 292" fill="none" xmlns="http://www.w3.org/2000/svg">
<path d="M270 147C270 216.588 212.245 273 141 273C69.7553 273 12 216.588 12 147C12 77.4121 69.7553 21 141 21C212.245 21 270 77.4121 270 147ZM39.5608 147C39.5608 201.72 84.9767 246.08 141 246.08C197.023 246.08 242.439 201.72 242.439 147C242.439 92.2796 197.023 47.9199 141 47.9199C84.9767 47.9199 39.5608 92.2796 39.5608 147Z" fill="url(#paint0_linear_93_26)"/>
<path d="M99.5715 177.19C93.4515 177.19 88.5781 175.518 84.9515 172.175C81.3815 168.832 79.5965 164.157 79.5965 158.15V152.54H90.8165V158.15C90.8165 160.813 91.5531 162.91 93.0265 164.44C94.4998 165.913 96.5681 166.65 99.2315 166.65C101.725 166.65 103.651 165.913 105.011 164.44C106.428 162.967 107.136 160.87 107.136 158.15V126.7H96.9365V116.5H125.156V126.7H118.356V158.15C118.356 164.327 116.685 169.058 113.341 172.345C109.998 175.575 105.408 177.19 99.5715 177.19ZM139.126 176L131.306 116.5H142.441L148.221 168.18H149.751L157.231 116.5H176.611L184.091 168.18H185.621L191.401 116.5H202.536L194.716 176H175.336L167.686 123.13H166.156L158.506 176H139.126Z" fill="url(#paint1_linear_93_26)"/>
<path d="M289.937 176V116.5H328.187V126.7H301.157V140.895H325.807V151.095H301.157V165.8H328.697V176H289.937ZM333.262 176L350.687 145.995L333.432 116.5H346.182L357.997 138.005H359.527L371.342 116.5H384.092L366.837 145.995L384.262 176H371.512L359.527 153.985H357.997L346.012 176H333.262ZM391.704 176V116.5H429.954V126.7H402.924V140.895H427.574V151.095H402.924V165.8H430.464V176H391.704ZM461.38 177.19C454.013 177.19 448.176 175.15 443.87 171.07C439.563 166.933 437.41 161.04 437.41 153.39V139.11C437.41 131.46 439.563 125.595 443.87 121.515C448.176 117.378 454.013 115.31 461.38 115.31C468.69 115.31 474.328 117.322 478.295 121.345C482.318 125.312 484.33 130.78 484.33 137.75V138.26H473.28V137.41C473.28 133.897 472.288 131.007 470.305 128.74C468.378 126.473 465.403 125.34 461.38 125.34C457.413 125.34 454.296 126.558 452.03 128.995C449.763 131.432 448.63 134.747 448.63 138.94V153.56C448.63 157.697 449.763 161.012 452.03 163.505C454.296 165.942 457.413 167.16 461.38 167.16C465.403 167.16 468.378 166.027 470.305 163.76C472.288 161.437 473.28 158.547 473.28 155.09V153.56H484.33V154.75C484.33 161.72 482.318 167.217 478.295 171.24C474.328 175.207 468.69 177.19 461.38 177.19ZM516.422 177.19C511.548 177.19 507.355 176.312 503.842 174.555C500.385 172.742 497.722 170.192 495.852 166.905C494.038 163.562 493.132 159.623 493.132 155.09V116.5H504.352V155.43C504.352 159.057 505.372 161.918 507.412 164.015C509.508 166.112 512.512 167.16 516.422 167.16C520.332 167.16 523.307 166.112 525.347 164.015C527.443 161.918 528.492 159.057 528.492 155.43V116.5H539.712V155.09C539.712 159.623 538.777 163.562 536.907 166.905C535.093 170.192 532.43 172.742 528.917 174.555C525.46 176.312 521.295 177.19 516.422 177.19ZM564.351 176V126.7H547.011V116.5H592.911V126.7H575.571V176H564.351ZM600.552 176V116.5H611.772V176H600.552ZM634.014 176L618.884 116.5H630.444L643.024 168.775H644.214L656.794 116.5H668.354L653.224 176H634.014ZM675.508 176V116.5H713.758V126.7H686.728V140.895H711.378V151.095H686.728V165.8H714.268V176H675.508ZM738.298 164.015V151.095H725.548V141.405H738.298V128.485H748.328V141.405H761.078V151.095H748.328V164.015H738.298Z" fill="url(#paint2_linear_93_26)"/>
<defs>
<linearGradient id="paint0_linear_93_26" x1="50" y1="46" x2="226" y2="230" gradientUnits="userSpaceOnUse">
<stop stop-color="#D27B38"/>
<stop offset="0.480997" stop-color="#D08636"/>
<stop offset="0.949273" stop-color="#DA6810"/>
</linearGradient>
<linearGradient id="paint1_linear_93_26" x1="141" y1="99" x2="194" y2="176" gradientUnits="userSpaceOnUse">
<stop offset="0.185855" stop-color="#D27B38"/>
<stop offset="1" stop-color="#DA6810"/>
</linearGradient>
<linearGradient id="paint2_linear_93_26" x1="270" y1="146.5" x2="784" y2="146.5" gradientUnits="userSpaceOnUse">
<stop stop-color="#D27B38"/>
<stop offset="0.5" stop-color="#D08636"/>
<stop offset="1" stop-color="#DA6810"/>
</linearGradient>
</defs>
</svg>
