<svg width="796" height="292" viewBox="0 0 796 292" fill="none" xmlns="http://www.w3.org/2000/svg">
<path d="M270 147C270 216.588 212.245 273 141 273C69.7553 273 12 216.588 12 147C12 77.4121 69.7553 21 141 21C212.245 21 270 77.4121 270 147ZM39.5608 147C39.5608 201.72 84.9767 246.08 141 246.08C197.023 246.08 242.439 201.72 242.439 147C242.439 92.2796 197.023 47.9199 141 47.9199C84.9767 47.9199 39.5608 92.2796 39.5608 147Z" fill="url(#paint0_linear_83_19)" style="mix-blend-mode:luminosity"/>
<path d="M99.5715 177.19C93.4515 177.19 88.5781 175.518 84.9515 172.175C81.3815 168.832 79.5965 164.157 79.5965 158.15V152.54H90.8165V158.15C90.8165 160.813 91.5531 162.91 93.0265 164.44C94.4998 165.913 96.5681 166.65 99.2315 166.65C101.725 166.65 103.651 165.913 105.011 164.44C106.428 162.967 107.136 160.87 107.136 158.15V126.7H96.9365V116.5H125.156V126.7H118.356V158.15C118.356 164.327 116.685 169.058 113.341 172.345C109.998 175.575 105.408 177.19 99.5715 177.19ZM139.126 176L131.306 116.5H142.441L148.221 168.18H149.751L157.231 116.5H176.611L184.091 168.18H185.621L191.401 116.5H202.536L194.716 176H175.336L167.686 123.13H166.156L158.506 176H139.126Z" fill="url(#paint1_linear_83_19)" style="mix-blend-mode:luminosity"/>
<path d="M289.67 176V116.5H327.07V126.7H300.89V141.065H325.03V151.265H300.89V176H289.67ZM335.075 176V116.5H346.295V176H335.075ZM357.487 176V116.5H383.327C387.067 116.5 390.325 117.152 393.102 118.455C395.879 119.758 398.032 121.6 399.562 123.98C401.092 126.36 401.857 129.165 401.857 132.395V133.415C401.857 136.985 401.007 139.875 399.307 142.085C397.607 144.295 395.51 145.91 393.017 146.93V148.46C395.284 148.573 397.04 149.367 398.287 150.84C399.534 152.257 400.157 154.155 400.157 156.535V176H388.937V158.15C388.937 156.79 388.569 155.685 387.832 154.835C387.152 153.985 385.99 153.56 384.347 153.56H368.707V176H357.487ZM368.707 143.36H382.137C384.8 143.36 386.869 142.652 388.342 141.235C389.872 139.762 390.637 137.835 390.637 135.455V134.605C390.637 132.225 389.9 130.327 388.427 128.91C386.954 127.437 384.857 126.7 382.137 126.7H368.707V143.36ZM431.848 177.19C427.258 177.19 423.206 176.368 419.693 174.725C416.18 173.082 413.431 170.73 411.448 167.67C409.465 164.61 408.473 160.927 408.473 156.62V154.24H419.523V156.62C419.523 160.19 420.628 162.882 422.838 164.695C425.048 166.452 428.051 167.33 431.848 167.33C435.701 167.33 438.563 166.565 440.433 165.035C442.36 163.505 443.323 161.55 443.323 159.17C443.323 157.527 442.841 156.195 441.878 155.175C440.971 154.155 439.611 153.333 437.798 152.71C436.041 152.03 433.888 151.407 431.338 150.84L429.383 150.415C425.303 149.508 421.79 148.375 418.843 147.015C415.953 145.598 413.715 143.757 412.128 141.49C410.598 139.223 409.833 136.277 409.833 132.65C409.833 129.023 410.683 125.935 412.383 123.385C414.14 120.778 416.576 118.795 419.693 117.435C422.866 116.018 426.578 115.31 430.828 115.31C435.078 115.31 438.846 116.047 442.133 117.52C445.476 118.937 448.083 121.09 449.953 123.98C451.88 126.813 452.843 130.383 452.843 134.69V137.24H441.793V134.69C441.793 132.423 441.34 130.61 440.433 129.25C439.583 127.833 438.336 126.813 436.693 126.19C435.05 125.51 433.095 125.17 430.828 125.17C427.428 125.17 424.906 125.822 423.263 127.125C421.676 128.372 420.883 130.1 420.883 132.31C420.883 133.783 421.251 135.03 421.988 136.05C422.781 137.07 423.943 137.92 425.473 138.6C427.003 139.28 428.958 139.875 431.338 140.385L433.293 140.81C437.543 141.717 441.226 142.878 444.343 144.295C447.516 145.712 449.981 147.582 451.738 149.905C453.495 152.228 454.373 155.203 454.373 158.83C454.373 162.457 453.438 165.658 451.568 168.435C449.755 171.155 447.148 173.308 443.748 174.895C440.405 176.425 436.438 177.19 431.848 177.19ZM474.602 176V126.7H457.262V116.5H503.162V126.7H485.822V176H474.602ZM552.421 177.19C545.055 177.19 539.218 175.15 534.911 171.07C530.605 166.933 528.451 161.04 528.451 153.39V139.11C528.451 131.46 530.605 125.595 534.911 121.515C539.218 117.378 545.055 115.31 552.421 115.31C559.731 115.31 565.37 117.322 569.336 121.345C573.36 125.312 575.371 130.78 575.371 137.75V138.26H564.321V137.41C564.321 133.897 563.33 131.007 561.346 128.74C559.42 126.473 556.445 125.34 552.421 125.34C548.455 125.34 545.338 126.558 543.071 128.995C540.805 131.432 539.671 134.747 539.671 138.94V153.56C539.671 157.697 540.805 161.012 543.071 163.505C545.338 165.942 548.455 167.16 552.421 167.16C556.445 167.16 559.42 166.027 561.346 163.76C563.33 161.437 564.321 158.547 564.321 155.09V153.56H575.371V154.75C575.371 161.72 573.36 167.217 569.336 171.24C565.37 175.207 559.731 177.19 552.421 177.19ZM584.513 176V116.5H595.733V165.8H622.933V176H584.513ZM626.503 176L642.143 116.5H661.693L677.333 176H665.773L662.543 162.91H641.293L638.063 176H626.503ZM643.928 152.54H659.908L652.683 123.555H651.153L643.928 152.54ZM705.11 177.19C700.52 177.19 696.468 176.368 692.955 174.725C689.441 173.082 686.693 170.73 684.71 167.67C682.726 164.61 681.735 160.927 681.735 156.62V154.24H692.785V156.62C692.785 160.19 693.89 162.882 696.1 164.695C698.31 166.452 701.313 167.33 705.11 167.33C708.963 167.33 711.825 166.565 713.695 165.035C715.621 163.505 716.585 161.55 716.585 159.17C716.585 157.527 716.103 156.195 715.14 155.175C714.233 154.155 712.873 153.333 711.06 152.71C709.303 152.03 707.15 151.407 704.6 150.84L702.645 150.415C698.565 149.508 695.051 148.375 692.105 147.015C689.215 145.598 686.976 143.757 685.39 141.49C683.86 139.223 683.095 136.277 683.095 132.65C683.095 129.023 683.945 125.935 685.645 123.385C687.401 120.778 689.838 118.795 692.955 117.435C696.128 116.018 699.84 115.31 704.09 115.31C708.34 115.31 712.108 116.047 715.395 117.52C718.738 118.937 721.345 121.09 723.215 123.98C725.141 126.813 726.105 130.383 726.105 134.69V137.24H715.055V134.69C715.055 132.423 714.601 130.61 713.695 129.25C712.845 127.833 711.598 126.813 709.955 126.19C708.311 125.51 706.356 125.17 704.09 125.17C700.69 125.17 698.168 125.822 696.525 127.125C694.938 128.372 694.145 130.1 694.145 132.31C694.145 133.783 694.513 135.03 695.25 136.05C696.043 137.07 697.205 137.92 698.735 138.6C700.265 139.28 702.22 139.875 704.6 140.385L706.555 140.81C710.805 141.717 714.488 142.878 717.605 144.295C720.778 145.712 723.243 147.582 725 149.905C726.756 152.228 727.635 155.203 727.635 158.83C727.635 162.457 726.7 165.658 724.83 168.435C723.016 171.155 720.41 173.308 717.01 174.895C713.666 176.425 709.7 177.19 705.11 177.19ZM756.658 177.19C752.068 177.19 748.016 176.368 744.503 174.725C740.989 173.082 738.241 170.73 736.258 167.67C734.274 164.61 733.283 160.927 733.283 156.62V154.24H744.333V156.62C744.333 160.19 745.438 162.882 747.648 164.695C749.858 166.452 752.861 167.33 756.658 167.33C760.511 167.33 763.373 166.565 765.243 165.035C767.169 163.505 768.133 161.55 768.133 159.17C768.133 157.527 767.651 156.195 766.688 155.175C765.781 154.155 764.421 153.333 762.608 152.71C760.851 152.03 758.698 151.407 756.148 150.84L754.193 150.415C750.113 149.508 746.599 148.375 743.653 147.015C740.763 145.598 738.524 143.757 736.938 141.49C735.408 139.223 734.643 136.277 734.643 132.65C734.643 129.023 735.493 125.935 737.193 123.385C738.949 120.778 741.386 118.795 744.503 117.435C747.676 116.018 751.388 115.31 755.638 115.31C759.888 115.31 763.656 116.047 766.943 117.52C770.286 118.937 772.893 121.09 774.763 123.98C776.689 126.813 777.653 130.383 777.653 134.69V137.24H766.603V134.69C766.603 132.423 766.149 130.61 765.243 129.25C764.393 127.833 763.146 126.813 761.503 126.19C759.859 125.51 757.904 125.17 755.638 125.17C752.238 125.17 749.716 125.822 748.073 127.125C746.486 128.372 745.693 130.1 745.693 132.31C745.693 133.783 746.061 135.03 746.798 136.05C747.591 137.07 748.753 137.92 750.283 138.6C751.813 139.28 753.768 139.875 756.148 140.385L758.103 140.81C762.353 141.717 766.036 142.878 769.153 144.295C772.326 145.712 774.791 147.582 776.548 149.905C778.304 152.228 779.183 155.203 779.183 158.83C779.183 162.457 778.248 165.658 776.378 168.435C774.564 171.155 771.958 173.308 768.558 174.895C765.214 176.425 761.248 177.19 756.658 177.19Z" fill="url(#paint2_linear_83_19)" style="mix-blend-mode:luminosity"/>
<defs>
<linearGradient id="paint0_linear_83_19" x1="50" y1="46" x2="226" y2="230" gradientUnits="userSpaceOnUse">
<stop stop-color="#E0E0E0"/>
<stop offset="0.480997" stop-color="#C0C0C0"/>
<stop offset="0.949273" stop-color="#A4A4A4"/>
</linearGradient>
<linearGradient id="paint1_linear_83_19" x1="141" y1="99" x2="194" y2="176" gradientUnits="userSpaceOnUse">
<stop offset="0.185855" stop-color="#E0E0E0"/>
<stop offset="1" stop-color="#A4A4A4"/>
</linearGradient>
<linearGradient id="paint2_linear_83_19" x1="270" y1="146.5" x2="796" y2="146.5" gradientUnits="userSpaceOnUse">
<stop stop-color="#E0E0E0"/>
<stop offset="0.5" stop-color="#C0C0C0"/>
<stop offset="1" stop-color="#A4A4A4"/>
</linearGradient>
</defs>
</svg>
