<svg width="512" height="512" viewBox="0 0 512 512" fill="none" xmlns="http://www.w3.org/2000/svg">
<path d="M322 72C322 106.242 292.675 134 256.5 134C220.325 134 191 106.242 191 72C191 37.7583 220.325 10 256.5 10C292.675 10 322 37.7583 322 72ZM219.561 72C219.561 91.3107 236.099 106.965 256.5 106.965C276.901 106.965 293.439 91.3107 293.439 72C293.439 52.6893 276.901 37.035 256.5 37.035C236.099 37.035 219.561 52.6893 219.561 72Z" fill="black"/>
<path d="M322 256C322 290.242 292.675 318 256.5 318C220.325 318 191 290.242 191 256C191 221.758 220.325 194 256.5 194C292.675 194 322 221.758 322 256ZM219.561 256C219.561 275.311 236.099 290.965 256.5 290.965C276.901 290.965 293.439 275.311 293.439 256C293.439 236.689 276.901 221.035 256.5 221.035C236.099 221.035 219.561 236.689 219.561 256Z" fill="black"/>
<path d="M322 438C322 472.242 292.675 500 256.5 500C220.325 500 191 472.242 191 438C191 403.758 220.325 376 256.5 376C292.675 376 322 403.758 322 438ZM219.561 438C219.561 457.311 236.099 472.965 256.5 472.965C276.901 472.965 293.439 457.311 293.439 438C293.439 418.689 276.901 403.035 256.5 403.035C236.099 403.035 219.561 418.689 219.561 438Z" fill="black"/>
</svg>
