<svg width="515" height="515" viewBox="0 0 515 515" fill="none" xmlns="http://www.w3.org/2000/svg">
<g clip-path="url(#clip0_88_15)">
<path d="M1.07497 256.69C1.628 115.529 116.914 1.14229 258.076 1.69533C399.238 2.24836 513.624 117.535 513.071 258.696C512.518 399.858 397.232 514.244 256.07 513.691C244.273 513.645 234.774 504.072 234.82 492.275C234.867 480.477 244.44 470.979 256.237 471.025C373.868 471.486 469.944 376.16 470.405 258.529C470.866 140.898 375.54 44.8225 257.909 44.3617C140.278 43.9008 44.2022 139.226 43.7413 256.858C43.6951 268.655 34.1218 278.153 22.3246 278.107C10.5273 278.061 1.02875 268.488 1.07497 256.69ZM42.7384 512.856L128.071 513.19C139.868 513.236 149.442 503.738 149.488 491.94C149.534 480.143 140.035 470.57 128.238 470.524L73.0706 470.307L143.596 400.333C151.97 392.024 152.023 378.541 143.714 370.167C139.571 365.991 134.117 363.879 128.656 363.858C123.195 363.836 117.725 365.906 113.549 370.049L43.0237 440.024L43.2398 384.857C43.2861 373.059 33.7875 363.486 21.9902 363.44C10.193 363.394 0.61972 372.892 0.573502 384.689L0.239192 470.022C0.147006 493.553 19.2079 512.763 42.7384 512.856ZM235.238 385.609C235.192 397.406 244.691 406.979 256.488 407.026C268.285 407.072 277.858 397.573 277.905 385.776L277.988 364.443C313.273 364.581 342.1 335.979 342.239 300.694C342.352 271.702 321.67 247.066 293.081 242.197L228.27 231.148C220.297 229.794 214.542 222.945 214.574 214.86C214.62 203.084 224.215 193.564 235.991 193.61L284.374 193.8C291.969 193.83 299.035 197.932 302.828 204.56C308.676 214.802 321.697 218.352 331.939 212.44C342.159 206.592 345.709 193.549 339.818 183.329C328.504 163.551 307.304 151.223 284.52 151.133L278.803 151.111L278.886 129.778C278.933 117.981 269.434 108.407 257.637 108.361C245.839 108.315 236.266 117.813 236.22 129.611L236.136 150.944C200.851 150.806 172.024 179.408 171.886 214.693C171.773 243.684 192.455 268.32 221.044 273.19L285.855 284.238C293.828 285.592 299.583 292.442 299.551 300.527C299.505 312.303 289.91 321.823 278.134 321.776L229.75 321.587C222.156 321.557 215.089 317.455 211.297 310.826C205.47 300.606 192.449 297.056 182.186 302.947C171.965 308.795 168.416 321.837 174.306 332.058C185.621 351.836 206.821 364.164 229.605 364.253L235.322 364.276L235.238 385.609Z" fill="black"/>
</g>
<defs>
<clipPath id="clip0_88_15">
<rect width="512" height="512" fill="white" transform="translate(512.068 514.694) rotate(-179.776)"/>
</clipPath>
</defs>
</svg>
