<svg width="696" height="292" viewBox="0 0 696 292" fill="none" xmlns="http://www.w3.org/2000/svg">
<path d="M270 147C270 216.588 212.245 273 141 273C69.7553 273 12 216.588 12 147C12 77.4121 69.7553 21 141 21C212.245 21 270 77.4121 270 147ZM39.5608 147C39.5608 201.72 84.9767 246.08 141 246.08C197.023 246.08 242.439 201.72 242.439 147C242.439 92.2796 197.023 47.9199 141 47.9199C84.9767 47.9199 39.5608 92.2796 39.5608 147Z" fill="url(#paint0_linear_83_19)"/>
<path d="M86.0844 176L78.2644 116.5H89.3994L95.1794 168.18H96.7094L104.189 116.5H123.569L131.049 168.18H132.579L138.359 116.5H149.494L141.674 176H122.294L114.644 123.13H113.114L105.464 176H86.0844ZM179.803 177.19C172.437 177.19 166.6 175.15 162.293 171.07C157.987 166.933 155.833 161.04 155.833 153.39V139.11C155.833 131.46 157.987 125.595 162.293 121.515C166.6 117.378 172.437 115.31 179.803 115.31C187.113 115.31 192.752 117.322 196.718 121.345C200.742 125.312 202.754 130.78 202.754 137.75V138.26H191.703V137.41C191.703 133.897 190.712 131.007 188.728 128.74C186.802 126.473 183.827 125.34 179.803 125.34C175.837 125.34 172.72 126.558 170.453 128.995C168.187 131.432 167.053 134.747 167.053 138.94V153.56C167.053 157.697 168.187 161.012 170.453 163.505C172.72 165.942 175.837 167.16 179.803 167.16C183.827 167.16 186.802 166.027 188.728 163.76C190.712 161.437 191.703 158.547 191.703 155.09V153.56H202.754V154.75C202.754 161.72 200.742 167.217 196.718 171.24C192.752 175.207 187.113 177.19 179.803 177.19Z" fill="url(#paint1_linear_83_19)"/>
<path d="M297.721 176L289.901 116.5H301.036L306.816 168.18H308.346L315.826 116.5H335.206L342.686 168.18H344.216L349.996 116.5H361.131L353.311 176H333.931L326.281 123.13H324.751L317.101 176H297.721ZM369.668 176V133.84H380.378V176H369.668ZM375.023 128.91C373.096 128.91 371.453 128.287 370.093 127.04C368.789 125.793 368.138 124.15 368.138 122.11C368.138 120.07 368.789 118.427 370.093 117.18C371.453 115.933 373.096 115.31 375.023 115.31C377.006 115.31 378.649 115.933 379.953 117.18C381.256 118.427 381.908 120.07 381.908 122.11C381.908 124.15 381.256 125.793 379.953 127.04C378.649 128.287 377.006 128.91 375.023 128.91ZM408.396 176C405.619 176 403.353 175.15 401.596 173.45C399.896 171.693 399.046 169.37 399.046 166.48V142.68H388.506V133.84H399.046V120.75H409.756V133.84H418.766V142.68H409.756V164.61C409.756 166.31 410.549 167.16 412.136 167.16H420.296V176H408.396ZM436.106 176C433.329 176 431.063 175.15 429.306 173.45C427.606 171.693 426.756 169.37 426.756 166.48V142.68H418.766V133.84H426.756V120.75H437.466V133.84H449.026V142.68H437.466V164.61C437.466 166.31 438.259 167.16 439.846 167.16H448.006V176H436.106ZM458.735 176V133.84H469.445V176H458.735ZM464.09 128.91C462.163 128.91 460.52 128.287 459.16 127.04C457.857 125.793 457.205 124.15 457.205 122.11C457.205 120.07 457.857 118.427 459.16 117.18C460.52 115.933 462.163 115.31 464.09 115.31C466.073 115.31 467.717 115.933 469.02 117.18C470.323 118.427 470.975 120.07 470.975 122.11C470.975 124.15 470.323 125.793 469.02 127.04C467.717 128.287 466.073 128.91 464.09 128.91ZM525.165 177.19C517.799 177.19 511.962 175.15 507.655 171.07C503.349 166.933 501.195 161.04 501.195 153.39V139.11C501.195 131.46 503.349 125.595 507.655 121.515C511.962 117.378 517.799 115.31 525.165 115.31C532.475 115.31 538.114 117.322 542.08 121.345C546.104 125.312 548.115 130.78 548.115 137.75V138.26H537.065V137.41C537.065 133.897 536.074 131.007 534.09 128.74C532.164 126.473 529.189 125.34 525.165 125.34C521.199 125.34 518.082 126.558 515.815 128.995C513.549 131.432 512.415 134.747 512.415 138.94V153.56C512.415 157.697 513.549 161.012 515.815 163.505C518.082 165.942 521.199 167.16 525.165 167.16C529.189 167.16 532.164 166.027 534.09 163.76C536.074 161.437 537.065 158.547 537.065 155.09V153.56H548.115V154.75C548.115 161.72 546.104 167.217 542.08 171.24C538.114 175.207 532.475 177.19 525.165 177.19ZM577.657 177.19C573.464 177.19 569.696 176.34 566.352 174.64C563.009 172.94 560.374 170.475 558.447 167.245C556.521 164.015 555.557 160.133 555.557 155.6V154.24C555.557 149.707 556.521 145.825 558.447 142.595C560.374 139.365 563.009 136.9 566.352 135.2C569.696 133.5 573.464 132.65 577.657 132.65C581.851 132.65 585.619 133.5 588.962 135.2C592.306 136.9 594.941 139.365 596.867 142.595C598.794 145.825 599.757 149.707 599.757 154.24V155.6C599.757 160.133 598.794 164.015 596.867 167.245C594.941 170.475 592.306 172.94 588.962 174.64C585.619 176.34 581.851 177.19 577.657 177.19ZM577.657 167.67C580.944 167.67 583.664 166.622 585.817 164.525C587.971 162.372 589.047 159.312 589.047 155.345V154.495C589.047 150.528 587.971 147.497 585.817 145.4C583.721 143.247 581.001 142.17 577.657 142.17C574.371 142.17 571.651 143.247 569.497 145.4C567.344 147.497 566.267 150.528 566.267 154.495V155.345C566.267 159.312 567.344 162.372 569.497 164.525C571.651 166.622 574.371 167.67 577.657 167.67ZM609.643 176V133.84H620.353V176H609.643ZM614.998 128.91C613.072 128.91 611.428 128.287 610.068 127.04C608.765 125.793 608.113 124.15 608.113 122.11C608.113 120.07 608.765 118.427 610.068 117.18C611.428 115.933 613.072 115.31 614.998 115.31C616.982 115.31 618.625 115.933 619.928 117.18C621.232 118.427 621.883 120.07 621.883 122.11C621.883 124.15 621.232 125.793 619.928 127.04C618.625 128.287 616.982 128.91 614.998 128.91ZM632.221 176V133.84H642.761V139.365H644.291C644.971 137.892 646.246 136.503 648.116 135.2C649.986 133.84 652.82 133.16 656.616 133.16C659.903 133.16 662.765 133.925 665.201 135.455C667.695 136.928 669.621 138.997 670.981 141.66C672.341 144.267 673.021 147.327 673.021 150.84V176H662.311V151.69C662.311 148.517 661.518 146.137 659.931 144.55C658.401 142.963 656.191 142.17 653.301 142.17C650.015 142.17 647.465 143.275 645.651 145.485C643.838 147.638 642.931 150.67 642.931 154.58V176H632.221Z" fill="url(#paint2_linear_83_19)"/>
<defs>
<linearGradient id="paint0_linear_83_19" x1="50" y1="46" x2="226" y2="230" gradientUnits="userSpaceOnUse">
<stop stop-color="#D2B838"/>
<stop offset="0.480997" stop-color="#D0B736"/>
<stop offset="0.949273" stop-color="#DAB910"/>
</linearGradient>
<linearGradient id="paint1_linear_83_19" x1="141" y1="99" x2="194" y2="176" gradientUnits="userSpaceOnUse">
<stop offset="0.185855" stop-color="#DDC11F"/>
<stop offset="1" stop-color="#D5B205"/>
</linearGradient>
<linearGradient id="paint2_linear_83_19" x1="270" y1="146.5" x2="696" y2="146.5" gradientUnits="userSpaceOnUse">
<stop stop-color="#EAC90F"/>
<stop offset="0.5" stop-color="#E2C416"/>
<stop offset="1" stop-color="#B89F11"/>
</linearGradient>
</defs>
</svg>
